<?xml version="1.0" encoding="UTF-8" standalone="no"?>
<svg version="1.0" xmlns="http://www.w3.org/2000/svg"
 width="2000.000000pt" height="1500.000000pt" viewBox="0 0 2000.000000 1500.000000"
 preserveAspectRatio="xMidYMid meet">

<g transform="translate(-2000.000000,2500.000000) scale(0.300000,-0.201000)"
fill="#FF0000" stroke="none">
<path d="M6782 10765 c-67 -29 -62 241 -61 -3252 0 -2428 3 -3176 12 -3202 7
-19 25 -44 40 -55 27 -20 41 -21 380 -24 235 -2 364 0 389 8 74 21 68 -202 68
2502 0 1656 4 2438 11 2448 8 13 13 11 31 -12 12 -15 425 -1115 919 -2444 973
-2621 911 -2467 998 -2493 41 -12 593 -16 649 -5 17 4 47 20 67 38 34 29 89
172 963 2501 707 1885 931 2471 944 2473 17 3 18 -125 20 -2470 3 -2164 5
-2476 18 -2495 33 -50 58 -53 513 -53 465 0 465 0 511 63 l21 28 3 3182 c2
3015 1 3184 -15 3217 -10 19 -29 40 -43 47 -19 10 -172 13 -655 13 -714 0
-675 4 -727 -81 -15 -24 -421 -1085 -903 -2358 -482 -1272 -882 -2326 -890
-2341 -38 -74 -83 -33 -146 131 -24 63 -429 1124 -899 2358 -744 1953 -859
2247 -883 2265 -28 21 -35 21 -665 23 -537 2 -642 0 -670 -12z"/>
<path d="M6258 8970 c-261 -44 -492 -219 -598 -454 -89 -195 -94 -434 -14
-635 51 -131 102 -192 430 -521 l314 -315 0 224 0 225 -200 201 c-179 181
-203 209 -234 276 -95 201 -53 421 107 565 80 72 204 124 294 124 l33 0 0 160
0 160 -42 -1 c-24 -1 -64 -5 -90 -9z"/>
<path d="M13610 7273 l0 -242 58 -80 c206 -288 356 -678 409 -1066 18 -133 20
-453 4 -580 -50 -384 -180 -740 -386 -1050 l-85 -130 2 -237 3 -237 92 102
c396 439 634 975 694 1561 15 152 7 524 -16 666 -85 554 -330 1056 -714 1470
l-60 65 -1 -242z"/>
</g>
</svg>
